<?xml version="1.0" standalone="no"?>
<!DOCTYPE svg PUBLIC "-//W3C//DTD SVG 20010904//EN"
 "http://www.w3.org/TR/2001/REC-SVG-20010904/DTD/svg10.dtd">
<svg version="1.0" xmlns="http://www.w3.org/2000/svg"
 width="222.000000pt" height="222.000000pt" viewBox="0 0 222.000000 222.000000"
 preserveAspectRatio="xMidYMid meet">
<metadata>
Created by potrace 1.11, written by Peter Selinger 2001-2013
</metadata>
<g transform="translate(0.000000,222.000000) scale(0.100000,-0.100000)"
fill="#000000" stroke="none">
<path d="M1068 1995 c-2 -2 -28 -6 -58 -10 -30 -4 -63 -11 -72 -16 -10 -5 -18
-7 -18 -3 0 3 -6 2 -12 -4 -7 -6 -15 -10 -18 -10 -13 2 -93 -29 -160 -62 -203
-102 -378 -279 -470 -475 -26 -55 -54 -123 -56 -135 0 -3 -6 -25 -13 -50 -16
-56 -19 -69 -27 -139 -3 -31 -8 -64 -10 -73 -1 -11 3 -18 12 -18 8 0 14 5 14
11 0 13 72 120 124 184 68 83 157 169 236 229 41 31 80 60 86 65 12 10 89 52
116 63 16 6 17 3 11 -30 -4 -20 -7 -68 -7 -107 -2 -314 208 -584 521 -669 34
-9 65 -16 70 -15 4 1 13 0 18 -1 16 -4 168 0 195 5 14 2 39 7 55 11 17 4 28 4
25 2 -26 -27 -275 -156 -335 -174 -70 -22 -209 -56 -249 -62 -116 -16 -399 -7
-498 17 -20 5 -39 6 -42 3 -4 -3 -6 -1 -6 5 0 5 -6 10 -12 11 -43 5 -65 10
-83 17 -110 43 -174 71 -193 83 -12 8 -22 10 -22 6 0 -5 -4 -2 -10 6 -5 8 -11
12 -14 9 -3 -3 6 -17 19 -32 14 -14 25 -29 25 -32 0 -7 142 -148 183 -182 15
-13 27 -20 27 -17 0 3 7 -1 15 -10 20 -19 149 -90 200 -109 22 -8 49 -19 60
-23 11 -4 25 -9 30 -10 6 -1 12 -3 15 -4 14 -5 42 -11 110 -24 75 -14 308 -15
360 -1 14 3 37 8 51 9 15 2 32 7 38 10 6 4 23 9 37 12 41 8 205 88 275 134 63
42 259 231 259 249 0 5 6 16 13 23 11 13 18 24 50 80 6 13 15 25 18 28 8 8 60
142 66 170 2 13 9 30 15 37 6 7 8 13 5 13 -3 0 -2 14 3 31 11 36 32 214 25
207 -2 -2 -27 -39 -56 -83 -28 -44 -55 -81 -60 -83 -5 -2 -9 -10 -9 -18 0 -8
-4 -14 -10 -14 -5 0 -10 -7 -10 -16 0 -8 -4 -12 -10 -9 -5 3 -10 2 -10 -4 0
-6 -38 -49 -85 -97 -81 -82 -87 -86 -127 -86 -65 1 -177 22 -233 44 -27 11
-50 19 -50 17 0 -1 -22 8 -50 20 -27 12 -52 23 -55 23 -3 1 -9 6 -15 10 -5 5
-39 27 -74 50 -35 23 -92 71 -127 106 -65 65 -160 199 -170 240 -4 12 -11 22
-17 22 -6 0 -7 3 -4 7 4 3 2 12 -4 20 -6 7 -8 13 -4 13 4 0 3 6 -2 13 -31 40
-60 204 -35 199 6 -1 12 2 12 8 0 5 3 9 8 8 4 -1 23 3 42 10 19 7 36 13 37 13
2 0 22 7 45 15 24 8 54 17 68 20 14 2 59 10 100 18 53 10 126 13 245 10 200
-4 215 -5 215 -17 0 -4 4 -5 10 -2 5 3 29 1 52 -6 24 -6 50 -12 58 -14 38 -8
178 -59 229 -84 31 -15 65 -30 75 -34 37 -15 -139 178 -216 236 -12 9 -38 29
-55 43 -18 14 -33 22 -33 18 0 -4 -8 0 -17 8 -16 14 -79 50 -93 53 -5 2 -49
19 -80 32 -18 7 -28 10 -58 17 -12 3 -26 7 -30 10 -5 3 -22 7 -38 10 -16 3
-50 10 -76 14 -44 9 -273 14 -280 7z"/>
</g>
</svg>
