<svg id="undraw_quite_town_mg2q" xmlns="http://www.w3.org/2000/svg" width="888.244" height="478.033" viewBox="0 0 888.244 478.033">
  <path id="Path_5" data-name="Path 5" d="M347.878,687.984h-2a94,94,0,0,0-188,0h-2a96,96,0,1,1,192,0Z" transform="translate(-155.878 -210.984)" fill="#002441"/>
  <path id="Path_6" data-name="Path 6" d="M1043.88,687.984h-2a94,94,0,0,0-188,0h-2a96,96,0,0,1,192,0Z" transform="translate(-155.878 -210.984)" fill="#002441"/>
  <path id="Path_7" data-name="Path 7" d="M808.878,458.984h-2c0-94.841-77.159-172-172-172s-172,77.159-172,172h-2c0-95.944,78.056-174,174-174S808.878,363.04,808.878,458.984Z" transform="translate(-155.878 -210.984)" fill="#002441"/>
  <circle id="Ellipse_7" data-name="Ellipse 7" cx="39.5" cy="39.5" r="39.5" transform="translate(106)" fill="#ff6584"/>
  <path id="Path_8" data-name="Path 8" d="M153.891,311.384l67.861-80.817H355.171L436.7,309.983l-1.647,1.059h.588V476.227H153.984V311.042Z" fill="#002441"/>
  <rect id="Rectangle_30" data-name="Rectangle 30" width="15.383" height="53.249" transform="translate(210.102 276.248) rotate(180)" fill="#3f3d56"/>
  <path id="Path_9" data-name="Path 9" d="M220.694,229.508l83.651,98.073V476.227H153.984v-167.3Z" fill="#cb986c"/>
  <rect id="Rectangle_31" data-name="Rectangle 31" width="30.708" height="31.398" transform="translate(254.306 347.044)" fill="#3f3d56"/>
  <rect id="Rectangle_32" data-name="Rectangle 32" width="30.708" height="31.398" transform="translate(254.306 389.767)" fill="#3f3d56"/>
  <rect id="Rectangle_33" data-name="Rectangle 33" width="30.708" height="31.398" transform="translate(254.306 347.044)" fill="#fff"/>
  <rect id="Rectangle_34" data-name="Rectangle 34" width="30.708" height="31.398" transform="translate(254.306 389.767)" fill="#fff"/>
  <rect id="Rectangle_35" data-name="Rectangle 35" width="30.708" height="31.398" transform="translate(211.838 347.044)" fill="#3f3d56"/>
  <rect id="Rectangle_36" data-name="Rectangle 36" width="30.708" height="31.398" transform="translate(211.838 389.767)" fill="#3f3d56"/>
  <rect id="Rectangle_37" data-name="Rectangle 37" width="30.708" height="31.398" transform="translate(211.838 347.044)" fill="#fff"/>
  <rect id="Rectangle_38" data-name="Rectangle 38" width="30.708" height="31.398" transform="translate(211.838 389.767)" fill="#fff"/>
  <rect id="Rectangle_39" data-name="Rectangle 39" width="30.708" height="31.398" transform="translate(169.369 347.044)" fill="#3f3d56"/>
  <rect id="Rectangle_40" data-name="Rectangle 40" width="30.708" height="31.398" transform="translate(169.369 389.767)" fill="#3f3d56"/>
  <rect id="Rectangle_41" data-name="Rectangle 41" width="30.708" height="31.398" transform="translate(169.369 347.044)" fill="#fff"/>
  <rect id="Rectangle_42" data-name="Rectangle 42" width="30.708" height="31.398" transform="translate(169.369 389.767)" fill="#fff"/>
  <rect id="Rectangle_43" data-name="Rectangle 43" width="14" height="35" transform="translate(485 40)" fill="#cb986c"/>
  <rect id="Rectangle_44" data-name="Rectangle 44" width="119" height="405" transform="translate(379 72)" fill="#cb986c"/>
  <rect id="Rectangle_45" data-name="Rectangle 45" width="48" height="405" transform="translate(498 72)" fill="#002441"/>
  <rect id="Rectangle_46" data-name="Rectangle 46" width="18" height="18" transform="translate(400.5 107)" fill="#fff"/>
  <rect id="Rectangle_47" data-name="Rectangle 47" width="18" height="18" transform="translate(429.5 107)" fill="#fff"/>
  <rect id="Rectangle_48" data-name="Rectangle 48" width="18" height="18" transform="translate(458.5 107)" fill="#fff"/>
  <rect id="Rectangle_49" data-name="Rectangle 49" width="18" height="18" transform="translate(401 148)" fill="#fff"/>
  <rect id="Rectangle_50" data-name="Rectangle 50" width="18" height="18" transform="translate(430 148)" fill="#fff"/>
  <rect id="Rectangle_51" data-name="Rectangle 51" width="18" height="18" transform="translate(459 148)" fill="#fff"/>
  <rect id="Rectangle_52" data-name="Rectangle 52" width="18" height="18" transform="translate(401.5 189)" fill="#fff"/>
  <rect id="Rectangle_53" data-name="Rectangle 53" width="18" height="18" transform="translate(430.5 189)" fill="#fff"/>
  <rect id="Rectangle_54" data-name="Rectangle 54" width="18" height="18" transform="translate(459.5 189)" fill="#fff"/>
  <rect id="Rectangle_55" data-name="Rectangle 55" width="18" height="18" transform="translate(402 230)" fill="#fff"/>
  <rect id="Rectangle_56" data-name="Rectangle 56" width="18" height="18" transform="translate(431 230)" fill="#fff"/>
  <rect id="Rectangle_57" data-name="Rectangle 57" width="18" height="18" transform="translate(460 230)" fill="#fff"/>
  <rect id="Rectangle_58" data-name="Rectangle 58" width="18" height="18" transform="translate(402.5 271)" fill="#fff"/>
  <rect id="Rectangle_59" data-name="Rectangle 59" width="18" height="18" transform="translate(431.5 271)" fill="#fff"/>
  <rect id="Rectangle_60" data-name="Rectangle 60" width="18" height="18" transform="translate(460.5 271)" fill="#fff"/>
  <rect id="Rectangle_61" data-name="Rectangle 61" width="18" height="18" transform="translate(403 312)" fill="#fff"/>
  <rect id="Rectangle_62" data-name="Rectangle 62" width="18" height="18" transform="translate(432 312)" fill="#fff"/>
  <rect id="Rectangle_63" data-name="Rectangle 63" width="18" height="18" transform="translate(461 312)" fill="#fff"/>
  <rect id="Rectangle_64" data-name="Rectangle 64" width="18" height="18" transform="translate(403.5 353)" fill="#fff"/>
  <rect id="Rectangle_65" data-name="Rectangle 65" width="18" height="18" transform="translate(432.5 353)" fill="#fff"/>
  <rect id="Rectangle_66" data-name="Rectangle 66" width="18" height="18" transform="translate(461.5 353)" fill="#fff"/>
  <rect id="Rectangle_67" data-name="Rectangle 67" width="18" height="18" transform="translate(404 394)" fill="#fff"/>
  <rect id="Rectangle_68" data-name="Rectangle 68" width="18" height="18" transform="translate(433 394)" fill="#fff"/>
  <rect id="Rectangle_69" data-name="Rectangle 69" width="18" height="34" transform="translate(433 442)" fill="#fff"/>
  <rect id="Rectangle_70" data-name="Rectangle 70" width="18" height="18" transform="translate(462 394)" fill="#fff"/>
  <rect id="Rectangle_71" data-name="Rectangle 71" width="8" height="34" transform="translate(498 40)" fill="#3f3d56"/>
  <rect id="Rectangle_72" data-name="Rectangle 72" width="14" height="20.744" transform="translate(635 218)" fill="#e8935f"/>
  <rect id="Rectangle_73" data-name="Rectangle 73" width="119" height="240.034" transform="translate(529 236.966)" fill="#cb986c"/>
  <rect id="Rectangle_74" data-name="Rectangle 74" width="48" height="240.034" transform="translate(648 236.966)" fill="#002441"/>
  <rect id="Rectangle_75" data-name="Rectangle 75" width="18" height="18" transform="translate(552.5 271)" fill="#fff"/>
  <rect id="Rectangle_76" data-name="Rectangle 76" width="18" height="18" transform="translate(581.5 271)" fill="#fff"/>
  <rect id="Rectangle_77" data-name="Rectangle 77" width="18" height="18" transform="translate(610.5 271)" fill="#fff"/>
  <rect id="Rectangle_78" data-name="Rectangle 78" width="18" height="18" transform="translate(553 312)" fill="#fff"/>
  <rect id="Rectangle_79" data-name="Rectangle 79" width="18" height="18" transform="translate(582 312)" fill="#fff"/>
  <rect id="Rectangle_80" data-name="Rectangle 80" width="18" height="18" transform="translate(611 312)" fill="#fff"/>
  <rect id="Rectangle_81" data-name="Rectangle 81" width="18" height="18" transform="translate(553.5 353)" fill="#fff"/>
  <rect id="Rectangle_82" data-name="Rectangle 82" width="18" height="18" transform="translate(582.5 353)" fill="#fff"/>
  <rect id="Rectangle_83" data-name="Rectangle 83" width="18" height="18" transform="translate(611.5 353)" fill="#fff"/>
  <rect id="Rectangle_84" data-name="Rectangle 84" width="18" height="18" transform="translate(554 394)" fill="#fff"/>
  <rect id="Rectangle_85" data-name="Rectangle 85" width="18" height="18" transform="translate(583 394)" fill="#fff"/>
  <rect id="Rectangle_86" data-name="Rectangle 86" width="18" height="34" transform="translate(583 442)" fill="#fff"/>
  <rect id="Rectangle_87" data-name="Rectangle 87" width="18" height="18" transform="translate(612 394)" fill="#fff"/>
  <rect id="Rectangle_88" data-name="Rectangle 88" width="8" height="20.151" transform="translate(648 218)" fill="#3f3d56"/>
  <rect id="Rectangle_89" data-name="Rectangle 89" width="888" height="2.241" transform="translate(0.244 475.792)" fill="#3f3d56"/>
  <circle id="Ellipse_8" data-name="Ellipse 8" cx="26.041" cy="26.041" r="26.041" transform="translate(706.619 378)" fill="#e8935f"/>
  <path id="Path_10" data-name="Path 10" d="M907.908,597.631a26.043,26.043,0,0,1-43.391,27.561,26.043,26.043,0,1,0,43.391-27.561Z" transform="translate(-155.878 -210.984)" opacity="0.2"/>
  <path id="Path_11" data-name="Path 11" d="M732.731,404.041h.072l1.287,73.829h-2.718Z" fill="#3f3d56"/>
  <rect id="Rectangle_90" data-name="Rectangle 90" width="1.288" height="4.865" transform="translate(736.872 443.118) rotate(62.234)" fill="#3f3d56"/>
  <circle id="Ellipse_9" data-name="Ellipse 9" cx="39.599" cy="39.599" r="39.599" transform="translate(769.619 326)" fill="#e8935f"/>
  <path id="Path_12" data-name="Path 12" d="M994.553,550.134a39.6,39.6,0,0,1-65.984,41.911,39.6,39.6,0,1,0,65.984-41.911Z" transform="translate(-155.878 -210.984)" opacity="0.2"/>
  <path id="Path_13" data-name="Path 13" d="M809.327,365.6h.109l1.958,112.271H807.26Z" fill="#002441"/>
  <rect id="Rectangle_91" data-name="Rectangle 91" width="1.958" height="7.398" transform="translate(815.625 425.021) rotate(62.234)" fill="#3f3d56"/>
  <circle id="Ellipse_10" data-name="Ellipse 10" cx="26.041" cy="26.041" r="26.041" transform="translate(0.619 377)" fill="#cb986c"/>
  <path id="Path_14" data-name="Path 14" d="M201.908,596.631a26.043,26.043,0,0,1-43.391,27.561,26.043,26.043,0,1,0,43.391-27.561Z" transform="translate(-155.878 -210.984)" opacity="0.2"/>
  <path id="Path_15" data-name="Path 15" d="M26.731,403.041H26.8L28.09,476.87H25.372Z" fill="#002441"/>
  <rect id="Rectangle_92" data-name="Rectangle 92" width="1.288" height="4.865" transform="translate(30.872 442.117) rotate(62.234)" fill="#3f3d56"/>
  <path id="Path_16" data-name="Path 16" d="M762.291,248.319l9.206-7.363c-7.151-.789-10.09,3.111-11.292,6.2-5.587-2.32-11.669.72-11.669.72l18.419,6.687a13.938,13.938,0,0,0-4.663-6.243Z" transform="translate(-155.878 -210.984)" fill="#002441"/>
  <path id="Path_17" data-name="Path 17" d="M300.291,285.319l9.206-7.363c-7.151-.789-10.09,3.111-11.293,6.2-5.587-2.32-11.669.72-11.669.72l18.419,6.687A13.938,13.938,0,0,0,300.291,285.319Z" transform="translate(-155.878 -210.984)" fill="#3f3d56"/>
  <path id="Path_18" data-name="Path 18" d="M902.291,323.319l9.206-7.363c-7.151-.789-10.09,3.111-11.292,6.2-5.587-2.32-11.669.72-11.669.72l18.419,6.687a13.938,13.938,0,0,0-4.663-6.243Z" transform="translate(-155.878 -210.984)" fill="#002441"/>
  <path id="Path_19" data-name="Path 19" d="M376.291,265.319l9.206-7.363c-7.151-.789-10.09,3.111-11.293,6.2-5.587-2.32-11.669.72-11.669.72l18.419,6.687a13.938,13.938,0,0,0-4.663-6.243Z" transform="translate(-155.878 -210.984)" fill="#3f3d56"/>
  <path id="Path_20" data-name="Path 20" d="M393.291,345.319l9.206-7.363c-7.151-.789-10.09,3.111-11.293,6.2-5.587-2.32-11.669.72-11.669.72l18.419,6.687a13.938,13.938,0,0,0-4.663-6.243Z" transform="translate(-155.878 -210.984)" fill="#002441"/>
  <path id="Path_21" data-name="Path 21" d="M751.291,387.319l9.206-7.363c-7.151-.789-10.09,3.111-11.292,6.2-5.587-2.32-11.669.72-11.669.72l18.419,6.687a13.938,13.938,0,0,0-4.663-6.243Z" transform="translate(-155.878 -210.984)" fill="#002441"/>
  <path id="Path_22" data-name="Path 22" d="M106,456H44v2h9.669v19h2V458H93.331v19h2V458H106Z" fill="#002441"/>
  <path id="Path_23" data-name="Path 23" d="M324.878,674.984a13.919,13.919,0,0,0-6.971,1.871,14.982,14.982,0,0,0-25.029,11.129h45.949a13.991,13.991,0,0,0-13.949-13Z" transform="translate(-155.878 -210.984)" fill="#002441"/>
  <path id="Path_24" data-name="Path 24" d="M561.878,674.984a13.919,13.919,0,0,0-6.971,1.871,14.982,14.982,0,0,0-25.029,11.129h45.95a13.99,13.99,0,0,0-13.95-13Z" transform="translate(-155.878 -210.984)" fill="#002441"/>
  <path id="Path_25" data-name="Path 25" d="M716.878,674.984a13.919,13.919,0,0,0-6.971,1.871,14.982,14.982,0,0,0-25.029,11.129h45.95a13.99,13.99,0,0,0-13.95-13Z" transform="translate(-155.878 -210.984)" fill="#002441"/>
  <path id="Path_26" data-name="Path 26" d="M920.878,674.984a13.919,13.919,0,0,0-6.971,1.871,14.982,14.982,0,0,0-25.029,11.129h45.95a13.99,13.99,0,0,0-13.95-13Z" transform="translate(-155.878 -210.984)" fill="#002441"/>
  <path id="Path_27" data-name="Path 27" d="M1018.88,674.984a13.919,13.919,0,0,0-6.971,1.871,14.982,14.982,0,0,0-25.031,11.129h45.95a13.99,13.99,0,0,0-13.948-13Z" transform="translate(-155.878 -210.984)" fill="#002441"/>
  <path id="Path_28" data-name="Path 28" d="M129,407H113v16h7.417v53.912h2V423H129Z" fill="#002441"/>
  <rect id="Rectangle_93" data-name="Rectangle 93" width="62" height="2" transform="translate(44.122 450.016)" fill="#002441"/>
  <rect id="Rectangle_94" data-name="Rectangle 94" width="62" height="2" transform="translate(44.122 445.016)" fill="#002441"/>
  <rect id="Rectangle_95" data-name="Rectangle 95" width="62" height="2" transform="translate(44.122 440.016)" fill="#002441"/>
</svg>
